<svg xmlns="http://www.w3.org/2000/svg" viewBox="0 0 512 512">
  <rect width="512" height="512" rx="104" fill="#06232e"/>
  <g transform="translate(56.5, 56.5) scale(5.7)">
    <path d="M 55 15 L 25 15 A 15 15 0 0 0 10 30 L 10 40 A 15 15 0 0 0 25 55 L 55 55" fill="none" stroke="#ffffff" stroke-width="12" stroke-linecap="square" />
    <path d="M 55 15 L 25 15 A 15 15 0 0 0 10 30 L 10 32 L 25 32 L 25 22" fill="none" stroke="#22d3ee" stroke-width="2.5" stroke-linecap="round" />
    <circle cx="25" cy="22" r="3" fill="#22d3ee" />
    <path d="M 10 45 L 10 40 A 15 15 0 0 1 25 55 L 45 55 L 45 42" fill="none" stroke="#22d3ee" stroke-width="2.5" stroke-linecap="round" />
    <circle cx="45" cy="42" r="3" fill="#22d3ee" />
    <circle cx="10" cy="45" r="3" fill="#22d3ee" />
  </g>
</svg>
